<svg xmlns="http://www.w3.org/2000/svg" xmlns:xlink="http://www.w3.org/1999/xlink" version="1.1" x="0px" y="0px" viewBox="0 0 100 125" enable-background="new 0 0 100 100" xml:space="preserve"><path d="M37.6,48.8c0,0.8-0.7,1.5-1.5,1.5h-5.6c-0.8,0-1.5-0.7-1.5-1.5v-5.6c0-0.8,0.7-1.5,1.5-1.5h5.6c0.8,0,1.5,0.7,1.5,1.5V48.8z   M49.4,43.2c0-0.8-0.7-1.5-1.5-1.5h-5.6c-0.8,0-1.5,0.7-1.5,1.5v5.6c0,0.8,0.7,1.5,1.5,1.5h5.6c0.8,0,1.5-0.7,1.5-1.5V43.2z   M61.2,43.2c0-0.8-0.7-1.5-1.5-1.5H54c-0.8,0-1.5,0.7-1.5,1.5v5.6c0,0.8,0.7,1.5,1.5,1.5h5.6c0.8,0,1.5-0.7,1.5-1.5V43.2z   M37.6,54.6c0-0.8-0.7-1.5-1.5-1.5h-5.6c-0.8,0-1.5,0.7-1.5,1.5v5.6c0,0.8,0.7,1.5,1.5,1.5h5.6c0.8,0,1.5-0.7,1.5-1.5V54.6z   M49.4,54.6c0-0.8-0.7-1.5-1.5-1.5h-5.6c-0.8,0-1.5,0.7-1.5,1.5v5.6c0,0.8,0.7,1.5,1.5,1.5h5.6c0.8,0,1.5-0.7,1.5-1.5V54.6z   M59.7,53.1H54c-0.8,0-1.5,0.7-1.5,1.5v5.6c0,0.8,0.7,1.5,1.5,1.5h5.6c0.8,0,1.5-0.7,1.5-1.5v-5.6C61.2,53.8,60.5,53.1,59.7,53.1z   M24.3,64.6h-5.6c-0.8,0-1.5,0.7-1.5,1.5v5.6c0,0.8,0.7,1.5,1.5,1.5h5.6c0.8,0,1.5-0.7,1.5-1.5v-5.6C25.8,65.3,25.2,64.6,24.3,64.6z   M25.8,54.6c0-0.8-0.7-1.5-1.5-1.5h-5.6c-0.8,0-1.5,0.7-1.5,1.5v5.6c0,0.8,0.7,1.5,1.5,1.5h5.6c0.8,0,1.5-0.7,1.5-1.5V54.6z   M47.9,64.6h-5.6c-0.8,0-1.5,0.7-1.5,1.5v5.6c0,0.8,0.7,1.5,1.5,1.5h5.6c0.8,0,1.5-0.7,1.5-1.5v-5.6C49.4,65.3,48.7,64.6,47.9,64.6z   M36.1,64.6h-5.6c-0.8,0-1.5,0.7-1.5,1.5v5.6c0,0.8,0.7,1.5,1.5,1.5h5.6c0.8,0,1.5-0.7,1.5-1.5v-5.6C37.6,65.3,36.9,64.6,36.1,64.6z   M71.4,50.3c0.8,0,1.5-0.7,1.5-1.5v-5.6c0-0.8-0.7-1.5-1.5-1.5h-5.6c-0.8,0-1.5,0.7-1.5,1.5v5.6c0,0.8,0.7,1.5,1.5,1.5H71.4z   M13.5,85.5h42.8c-0.7-2.2-1.1-4.5-1.1-6.8H13.5c-1.1,0-2-0.9-2-2V36.4h67.1v18.8c2.4,0,4.7,0.4,6.8,1V22.2c0-4.9-4-8.8-8.8-8.8  h-9.9V7.9c0-1.8-1.4-3.2-3.2-3.2h-5c-1.8,0-3.2,1.4-3.2,3.2v5.5H34.9V7.9c0-1.8-1.4-3.2-3.2-3.2h-5c-1.8,0-3.2,1.4-3.2,3.2v5.5h-9.9  c-4.9,0-8.8,4-8.8,8.8v54.4C4.6,81.5,8.6,85.5,13.5,85.5z M95.4,78.4c0,9.3-7.6,16.9-16.9,16.9c-9.3,0-16.9-7.6-16.9-16.9  c0-9.3,7.6-16.9,16.9-16.9C87.8,61.5,95.4,69.1,95.4,78.4z M87,74c0-0.5-0.2-1.1-0.6-1.4c-0.8-0.8-2.1-0.8-2.9,0l-7.3,7.3l-2.8-2.8  c-0.8-0.8-2.1-0.8-2.9,0c-0.4,0.4-0.6,0.9-0.6,1.4c0,0.5,0.2,1,0.6,1.4l4.2,4.2c0.8,0.8,2.1,0.8,2.9,0l8.8-8.8  C86.8,75.1,87,74.6,87,74z"/></svg>
