<?xml version="1.0" encoding="UTF-8" standalone="no"?>
<svg
   xmlns:dc="http://purl.org/dc/elements/1.1/"
   xmlns:cc="http://creativecommons.org/ns#"
   xmlns:rdf="http://www.w3.org/1999/02/22-rdf-syntax-ns#"
   xmlns:svg="http://www.w3.org/2000/svg"
   xmlns="http://www.w3.org/2000/svg"
   xmlns:sodipodi="http://sodipodi.sourceforge.net/DTD/sodipodi-0.dtd"
   xmlns:inkscape="http://www.inkscape.org/namespaces/inkscape"
   viewBox="0 0 1043.63 1043.6299"
   version="1.1"
   id="svg10"
   sodipodi:docname="medium.svg"
   width="1043.63"
   height="1043.63"
   inkscape:version="0.92.5 (2060ec1f9f, 2020-04-08)">
  <metadata
     id="metadata16">
    <rdf:RDF>
      <cc:Work
         rdf:about="">
        <dc:format>image/svg+xml</dc:format>
        <dc:type
           rdf:resource="http://purl.org/dc/dcmitype/StillImage" />
        <dc:title></dc:title>
      </cc:Work>
    </rdf:RDF>
  </metadata>
  <defs
     id="defs14" />
  <sodipodi:namedview
     pagecolor="#ffffff"
     bordercolor="#666666"
     borderopacity="1"
     objecttolerance="10"
     gridtolerance="10"
     guidetolerance="10"
     inkscape:pageopacity="0"
     inkscape:pageshadow="2"
     inkscape:window-width="1848"
     inkscape:window-height="1016"
     id="namedview12"
     showgrid="false"
     fit-margin-top="225"
     fit-margin-left="0"
     fit-margin-right="0"
     fit-margin-bottom="225"
     inkscape:zoom="0.33249332"
     inkscape:cx="521.815"
     inkscape:cy="521.35496"
     inkscape:window-x="72"
     inkscape:window-y="27"
     inkscape:window-maximized="1"
     inkscape:current-layer="svg10" />
  <g
     id="Layer_2"
     data-name="Layer 2"
     transform="translate(0,225.92004)">
    <g
       id="Layer_1-2"
       data-name="Layer 1">
      <path
         d="m 588.67,296.36 c 0,163.67 -131.78,296.35 -294.33,296.35 C 131.79,592.71 0,460 0,296.36 0,132.72 131.78,0 294.34,0 456.9,0 588.67,132.69 588.67,296.36"
         id="path2"
         inkscape:connector-curvature="0" />
      <path
         d="m 911.56,296.36 c 0,154.06 -65.89,279 -147.17,279 -81.28,0 -147.17,-124.94 -147.17,-279 0,-154.06 65.88,-279 147.16,-279 81.28,0 147.17,124.9 147.17,279"
         id="path4"
         inkscape:connector-curvature="0" />
      <path
         d="m 1043.63,296.36 c 0,138 -23.17,249.94 -51.76,249.94 -28.59,0 -51.75,-111.91 -51.75,-249.94 0,-138.03 23.17,-249.94 51.75,-249.94 28.58,0 51.76,111.9 51.76,249.94"
         id="path6"
         inkscape:connector-curvature="0" />
    </g>
  </g>
</svg>
