<svg xmlns="http://www.w3.org/2000/svg" xmlns:xlink="http://www.w3.org/1999/xlink" version="1.1" x="0px" y="0px" viewBox="0 0 100 125" enable-background="new 0 0 100 100" xml:space="preserve"><g><path d="M33,27.6c0-0.5,0.4-0.9,0.9-0.9h6.6V24c0-0.1,0-0.2,0-0.3h-7.2c-3.1,0-5.6,2.5-5.6,5.6v7.8H33V27.6z"/><path d="M58.7,26.8h6.6c0.5,0,0.9,0.4,0.9,0.9v33.7c1.6-0.9,3.4-1.5,5.3-1.6V29.3c0-3.1-2.5-5.6-5.6-5.6h-7.2c0,0.1,0,0.2,0,0.3   V26.8z"/><path d="M60.6,70H33.9c-0.5,0-0.9-0.4-0.9-0.9v-2.4h-5.3v2.5c0,3.1,2.5,5.6,5.6,5.6H61c-0.3-1.1-0.5-2.3-0.5-3.5   C60.5,70.9,60.5,70.5,60.6,70z"/><path d="M44.4,30.1h10.5c1.4,0,2.5-1.1,2.5-2.5V24c0-1.4-1.1-2.5-2.5-2.5h-2.4v-0.6c0-1.4-1.2-2.6-2.6-2.6h-0.5   c-1.4,0-2.6,1.2-2.6,2.6v0.6h-2.4c-1.4,0-2.5,1.1-2.5,2.5v3.7C41.9,29,43,30.1,44.4,30.1z M48.6,20.9c0-0.5,0.4-0.8,0.8-0.8h0.5   c0.5,0,0.8,0.4,0.8,0.8v0.6h-2.2V20.9z"/><path d="M38.1,38.7c-0.3,0.3-0.3,0.9,0,1.2l2.2,2.2c0.2,0.2,0.4,0.3,0.6,0.3c0.2,0,0.5-0.1,0.6-0.3l4.2-4.2c0.3-0.3,0.3-0.9,0-1.2   c-0.3-0.3-0.9-0.3-1.2,0l-3.6,3.6l-1.6-1.6C39,38.4,38.4,38.4,38.1,38.7z"/><path d="M60.6,40.6h-14c-0.5,0-0.9,0.4-0.9,0.9s0.4,0.9,0.9,0.9h14c0.5,0,0.9-0.4,0.9-0.9S61.1,40.6,60.6,40.6z"/><path d="M45.7,45.7c-0.3-0.3-0.9-0.3-1.2,0l-3.6,3.6l-1.6-1.6c-0.3-0.3-0.9-0.3-1.2,0c-0.3,0.3-0.3,0.9,0,1.2l2.2,2.2   c0.2,0.2,0.4,0.3,0.6,0.3c0.2,0,0.5-0.1,0.6-0.3l4.2-4.2C46.1,46.6,46.1,46,45.7,45.7z"/><path d="M60.6,49.6h-14c-0.5,0-0.9,0.4-0.9,0.9s0.4,0.9,0.9,0.9h14c0.5,0,0.9-0.4,0.9-0.9S61.1,49.6,60.6,49.6z"/><path d="M39.3,56.7c-0.3-0.3-0.9-0.3-1.2,0c-0.3,0.3-0.3,0.9,0,1.2l2.2,2.2c0.2,0.2,0.4,0.3,0.6,0.3c0.2,0,0.5-0.1,0.6-0.3l4.2-4.2   c0.3-0.3,0.3-0.9,0-1.2c-0.3-0.3-0.9-0.3-1.2,0l-3.6,3.6L39.3,56.7z"/><path d="M60.6,58.6h-14c-0.5,0-0.9,0.4-0.9,0.9s0.4,0.9,0.9,0.9h14c0.5,0,0.9-0.4,0.9-0.9S61.1,58.6,60.6,58.6z"/><path d="M72.2,61c-5.7,0-10.3,4.6-10.3,10.3s4.6,10.3,10.3,10.3c5.7,0,10.3-4.6,10.3-10.3S77.9,61,72.2,61z M75.8,72.2h-3.6   c-0.5,0-0.9-0.4-0.9-0.9v-4.5c0-0.5,0.4-0.9,0.9-0.9s0.9,0.4,0.9,0.9v3.6h2.7c0.5,0,0.9,0.4,0.9,0.9C76.7,71.8,76.3,72.2,75.8,72.2   z"/><path d="M25,43h4.1c1.2,0,2.1-1,2.1-2.1v-1.5c0-0.5-0.4-0.9-0.9-0.9h-6.6c-0.5,0-0.9,0.4-0.9,0.9v1.5C22.9,42.1,23.9,43,25,43z"/><path d="M36.7,62.3V41.5c0-1.7-1.4-3-3-3h-1.2c0.1,0.3,0.2,0.6,0.2,0.9v1.5c0,2-1.6,3.5-3.5,3.5H25c-2,0-3.5-1.6-3.5-3.5v-1.5   c0-0.3,0.1-0.6,0.2-0.9h-1.2c-1.7,0-3,1.4-3,3v20.8c0,1.7,1.4,3,3,3h13.2C35.3,65.4,36.7,64,36.7,62.3z M26,58.7l-2.2,2.2   c-0.2,0.2-0.4,0.3-0.6,0.3s-0.5-0.1-0.6-0.3l-1.1-1.1c-0.3-0.3-0.3-0.9,0-1.2c0.3-0.3,0.9-0.3,1.2,0l0.5,0.5l1.6-1.6   c0.3-0.3,0.9-0.3,1.2,0C26.3,57.8,26.3,58.4,26,58.7z M26,53.7L23.7,56c-0.2,0.2-0.4,0.3-0.6,0.3s-0.5-0.1-0.6-0.3l-1.1-1.1   c-0.3-0.3-0.3-0.9,0-1.2c0.3-0.3,0.9-0.3,1.2,0l0.5,0.5l1.6-1.6c0.3-0.3,0.9-0.3,1.2,0C26.3,52.8,26.3,53.4,26,53.7z M26,48.7   L23.7,51c-0.2,0.2-0.4,0.3-0.6,0.3s-0.5-0.1-0.6-0.3l-1.1-1.1c-0.3-0.3-0.3-0.9,0-1.2c0.3-0.3,0.9-0.3,1.2,0l0.5,0.5l1.6-1.6   c0.3-0.3,0.9-0.3,1.2,0C26.3,47.8,26.3,48.4,26,48.7z M32.2,61.2h-4.7c-0.5,0-0.9-0.4-0.9-0.9s0.4-0.9,0.9-0.9h4.7   c0.5,0,0.9,0.4,0.9,0.9S32.6,61.2,32.2,61.2z M32.2,56.2h-4.7c-0.5,0-0.9-0.4-0.9-0.9s0.4-0.9,0.9-0.9h4.7c0.5,0,0.9,0.4,0.9,0.9   S32.6,56.2,32.2,56.2z M32.2,51.2h-4.7c-0.5,0-0.9-0.4-0.9-0.9s0.4-0.9,0.9-0.9h4.7c0.5,0,0.9,0.4,0.9,0.9S32.6,51.2,32.2,51.2z"/></g></svg>
